//  ***** gm - Piano 3 *****
//  Soundfont converted using sfZed
//  SoundFont version 2.1
//  E-mu 10K1
//  Using Virtual Sampler


<group>
loop_mode=loop_continuous
ampeg_release=0.250

<region>
sample=PIANOA3.wav
lokey=105
loop_start=4686
loop_end=4840
tune=3
pitch_keycenter=103
volume=-13

<region>
sample=PIANOA3.wav
lokey=105
loop_start=4686
loop_end=4840
tune=3
pitch_keycenter=103
volume=-13

<region>
sample=PIANO36.wav
hikey=45
loop_start=11989
loop_end=13670
tune=-4
pitch_keycenter=36
volume=-15.600

<region>
sample=PIANO36.wav
hikey=45
loop_start=11989
loop_end=13670
tune=-4
pitch_keycenter=36
volume=-15.600

<region>
sample=PIANO41.wav
lokey=46
hikey=50
loop_start=10830
loop_end=13101
tune=-1
pitch_keycenter=41
volume=-14.500

<region>
sample=PIANO41.wav
lokey=46
hikey=50
loop_start=10830
loop_end=13101
tune=-1
pitch_keycenter=41
volume=-14.500

<region>
sample=PIANO48.wav
lokey=51
hikey=57
loop_start=9313
loop_end=11166
pitch_keycenter=48
volume=-15.600

<region>
sample=PIANO48.wav
lokey=51
hikey=57
loop_start=9313
loop_end=11166
pitch_keycenter=48
volume=-15.600

<region>
sample=PIANO56.wav
lokey=58
hikey=66
loop_start=8309
loop_end=9795
pitch_keycenter=56
volume=-15.600

<region>
sample=PIANO56.wav
lokey=58
hikey=66
loop_start=8309
loop_end=9795
pitch_keycenter=56
volume=-15.600

<region>
sample=PIANO64.wav
lokey=67
hikey=74
loop_start=9176
loop_end=10514
tune=1
pitch_keycenter=64
volume=-15.600

<region>
sample=PIANO64.wav
lokey=67
hikey=74
loop_start=9176
loop_end=10514
tune=1
pitch_keycenter=64
volume=-15.600

<region>
sample=PIANO73.wav
lokey=75
hikey=81
loop_start=6194
loop_end=7586
tune=1
pitch_keycenter=73
volume=-13

<region>
sample=PIANO73.wav
lokey=75
hikey=81
loop_start=6194
loop_end=7586
tune=1
pitch_keycenter=73
volume=-13

<region>
sample=PIANO78.wav
lokey=82
hikey=88
loop_start=6447
loop_end=7667
tune=-1
pitch_keycenter=78
volume=-14.800

<region>
sample=PIANO78.wav
lokey=82
hikey=88
loop_start=6447
loop_end=7667
tune=-1
pitch_keycenter=78
volume=-14.800

<region>
sample=PIANO84.wav
lokey=89
hikey=95
loop_start=5976
loop_end=7343
tune=-2
pitch_keycenter=84
volume=-13

<region>
sample=PIANO84.wav
lokey=89
hikey=95
loop_start=5976
loop_end=7343
tune=-2
pitch_keycenter=84
volume=-13

<region>
sample=PIANO92.wav
lokey=96
hikey=104
loop_start=5392
loop_end=6440
tune=1
pitch_keycenter=92
volume=-13

<region>
sample=PIANO92.wav
lokey=96
hikey=104
loop_start=5392
loop_end=6440
tune=1
pitch_keycenter=92
volume=-13
